<?xml version="1.0" encoding="utf-8"?>
<!-- Generator: Adobe Illustrator 16.0.0, SVG Export Plug-In . SVG Version: 6.00 Build 0)  -->
<!DOCTYPE svg PUBLIC "-//W3C//DTD SVG 1.1//EN" "http://www.w3.org/Graphics/SVG/1.1/DTD/svg11.dtd">
<svg version="1.1" xmlns="http://www.w3.org/2000/svg" xmlns:xlink="http://www.w3.org/1999/xlink" x="0px" y="0px" width="406px"
	 height="448.507px" viewBox="0 0 406 448.507" enable-background="new 0 0 406 448.507" xml:space="preserve">
<g id="Calque_1" display="none">
	<image display="inline" overflow="visible" width="406" height="448" xlink:href="a.jpg" >
	</image>
</g>
<g id="Calque_2">
	<path fill="none" stroke="#000000" stroke-width="4" stroke-linecap="round" stroke-miterlimit="10" d="M88,448L49,299
		c0,0-4-22,0-32s-10-33-14-49s4-29,14-53s31-50,51-54s18.5,5.25,21.25,8.75S130,143.5,133.75,151s9.5,20.5,12.75,23.25
		s2.5,10.75,2.25,18.25s-3.75,13.25-4.25,15.25s-1.5,20.5-1.5,20.5s1.25,2.75-2.75,7.25s-4.25,5.5-8,5.5s-15.5-0.25-15.5-0.25
		s-5-0.688-9.188-5.188s-2.5-2.25-5.25-6.063s-4.125-4.688-6.063-8.688s-2.375-3.313-3.563-8.375S92.5,197.333,92.5,197.333
		s0.286-0.833-1.023-2.833s-6.477-10.667-7.643-13s-7.5-12.167-7.5-12.167s-4.333-9.33-5-13.83s-1.667-9.333-1.667-9.333"/>
	<path fill="none" stroke="#000000" stroke-width="4" stroke-linecap="round" stroke-miterlimit="10" d="M52.667,174.333
		c0,0,10,9.333,32.667,13.667"/>
	<path fill="none" stroke="#000000" stroke-width="4" stroke-linecap="round" stroke-miterlimit="10" d="M42.667,221
		c0,0,30.042-10.229,52.854-1.615"/>
	<path fill="none" stroke="#000000" stroke-width="4" stroke-linecap="round" stroke-miterlimit="10" d="M141.333,215.935"/>
	<path fill="none" stroke="#000000" stroke-width="4" stroke-linecap="round" stroke-miterlimit="10" d="M139.917,216.333
		c0,0-2.25,1.917-7.25,4.083s-4.833,1.583-7.5,2.5s-2.25-0.167-5.417,2.75s-1.5,5-1.5,5.25s3.25,8.5,3.25,8.5l0.671,1.44"/>
	<path fill="none" stroke="#000000" stroke-width="4" stroke-linecap="round" stroke-miterlimit="10" d="M118.5,111.75
		c0,0-4.019-18.244,28.25-29c33-11,40.75,6.5,40.75,8c0,0,4,1.25,5,34.5s3.5,50.5,3.5,50.5l2.5,32v17.5c0,0-2,15.5-13,23
		c-7.039,4.799-30.729-1.89-31-2.25c-0.75-1-9.616-1.052-11.183-23.276"/>
	<path fill="none" stroke="#000000" stroke-width="4" stroke-linecap="round" stroke-miterlimit="10" d="M161.75,233"/>
	<path fill="none" stroke="#000000" stroke-width="4" stroke-linecap="round" stroke-miterlimit="10" d="M161.75,247.956V236.5
		c0,0-1.75-4.5,6.25-6.5s10.5-3.5,10.5-3.5s3-1.5,7.25,0s5.36,5.399,5.75,10.395"/>
	<path fill="none" stroke="#000000" stroke-width="4" stroke-linecap="round" stroke-miterlimit="10" d="M147.25,253
		c0,0,3.972-3.338,12.861-5.419"/>
	
		<line fill="none" stroke="#000000" stroke-width="4" stroke-linecap="round" stroke-miterlimit="10" x1="161.588" y1="265.25" x2="176.544" y2="250.291"/>
	<path fill="none" stroke="#000000" stroke-width="4" stroke-linecap="round" stroke-miterlimit="10" d="M166.5,300.25
		c0,0-1.5-23.047,16.25-50.273"/>
	<path fill="none" stroke="#000000" stroke-width="4" stroke-linecap="round" stroke-miterlimit="10" d="M187.75,311.25
		c0.5-0.75,1-65.5,28-78.25"/>
	<path fill="none" stroke="#000000" stroke-width="4" stroke-linecap="round" stroke-miterlimit="10" d="M211.75,249.977
		c0,0,20.25-34.977,52.75-40.977"/>
	<path fill="none" stroke="#000000" stroke-width="2" stroke-linecap="round" stroke-miterlimit="10" d="M208.667,85.667
		c0,0,0.5-4.5,27.333-5.167"/>
	<path fill="none" stroke="#000000" stroke-width="2" stroke-linecap="round" stroke-miterlimit="10" d="M217.167,85.667
		c0,0,10.666-2.834,22.333-0.667"/>
	<path fill="none" stroke="#000000" stroke-width="4" stroke-linecap="round" stroke-miterlimit="10" d="M189.167,91
		c1.5-0.5,10.167-22.167,37-18.167s28.334,9.667,31.5,15.667s5.167,15.5,5,27s-3.501,23.334-3.334,36.667s0.334,15.484,0.834,18.651
		s2.354,15.696,2.51,17.182s-1.427,7.5-1.427,7.5c-3,16-20.25,22.967-20.25,22.967s1,2.283-20,0s-22.5-10.717-22.5-10.717"/>
	<path fill="none" stroke="#000000" stroke-width="4" stroke-linecap="round" stroke-miterlimit="10" d="M254,80.5
		c0,0,9.667-20.167,21.667-22.167s20,0,20,0S306,57,316,67s7,10,10,18.667s2.668,15.333,1.334,26s-6,35-8.667,43.333
		s-4.667,22.333-15,33s-10.333,12-21.333,17.667s-16.527,4.707-19.646,0s-2.084-7.539-2.084-7.539"/>
	<path fill="none" stroke="#000000" stroke-width="4" stroke-linecap="round" stroke-miterlimit="10" d="M267.667,208.5
		c0,0-1.25-7.833,2.75-12.667s11.834-3.917,11.834-3.917s7.75-0.75,11.5,4.083"/>
	<path fill="none" stroke="#000000" stroke-width="4" stroke-linecap="round" stroke-miterlimit="10" d="M307.334,185.333
		c0,0-3.822,1.463,1.666,7.333c15.293,16.357,16.5,26.815,16.5,26.815"/>
	<path fill="none" stroke="#000000" stroke-width="4" stroke-linecap="round" stroke-miterlimit="10" d="M351.5,113.678
		c0,0-8.038,4.5-23.186-3.667"/>
	<path fill="none" stroke="#000000" stroke-width="4" stroke-linecap="round" stroke-miterlimit="10" d="M325.5,79.139
		c0,0,14.5-59.967,54.667-65.3c0,0,6.154-0.167,9.821,1.166s10.833,6,11.333,11.5s-1.999,8.166-2.666,10.833s-9.333,19.5-10,21.167
		s-2.988,10.829-4.155,18.662v44.489c0,0-3.667,28.833-5,31.166"/>
	<path fill="none" stroke="#000000" stroke-width="4" stroke-linecap="round" stroke-miterlimit="10" d="M386.5,59.335
		c0,0-3.334-18,13.333-33.167"/>
	<path fill="none" stroke="#000000" stroke-width="4" stroke-linecap="round" stroke-miterlimit="10" d="M379.333,152.139v83.167
		c0,0-0.637,15.131-16,38.153c-15.549,23.301-21.666,38.992-21.666,38.992s-20,41.85-25,47.017s-26.019,35.015-26.019,35.015
		s-11.001,14.666-11.334,24.333l-0.833,28.167"/>
	<path fill="none" stroke="#000000" stroke-width="4" stroke-linecap="round" stroke-miterlimit="10" d="M345.5,294.626"/>
	<path fill="none" stroke="#000000" stroke-width="4" stroke-linecap="round" stroke-miterlimit="10" d="M265.486,415.815
		c0,0-39.166,5.001-68.5-15.666"/>
	<path fill="none" stroke="#000000" stroke-width="4" stroke-linecap="round" stroke-miterlimit="10" d="M143.496,406.978
		c0,0-44.167,21.833-58.833,18"/>
</g>
</svg>
