<?xml version="1.0" encoding="utf-8"?>
<!-- Generator: Adobe Illustrator 16.0.0, SVG Export Plug-In . SVG Version: 6.00 Build 0)  -->
<!DOCTYPE svg PUBLIC "-//W3C//DTD SVG 1.1//EN" "http://www.w3.org/Graphics/SVG/1.1/DTD/svg11.dtd">
<svg version="1.1" xmlns="http://www.w3.org/2000/svg" xmlns:xlink="http://www.w3.org/1999/xlink" x="0px" y="0px" width="270px"
	 height="522.122px" viewBox="0 0 270 522.122" enable-background="new 0 0 270 522.122" xml:space="preserve">
<g id="Calque_1" display="none">
	<image display="inline" overflow="visible" width="270" height="522" xlink:href="b.jpg" >
	</image>
	<path fill="none" stroke="#000000" stroke-miterlimit="10" d="M49,522c0,0-9.5-51-19.5-77.5s-15.25-69.25-15-78.75
		s-1.25-63-1.25-63s5.182-9.467,12.5-40.25c7.435-31.276,5.341-35,5.341-35"/>
	<path display="inline" fill="none" d="M262.665,364.75c0,0,4.37-8.231,0-23"/>
</g>
<g id="Calque_2">
	<path fill="none" stroke="#000000" stroke-width="3" stroke-miterlimit="10" d="M48.5,522c0,0,1-27.5-19.5-77.5s-14-81-15-90.5
		s-0.227-52.5-0.227-52.5S23.32,268.249,27.5,255c4.51-14.297,8.5-52,10-57L52,122.5c0,0,4.167-19.333,18.167-22.5
		s14,13.167,14.667,14s0,28.667,0,28.667s-3.167,37.331-3.333,37.998s-2.833,47.492-2.833,47.492s7.5-1,10-3.667"/>
	<path fill="none" stroke="#000000" stroke-width="3" stroke-miterlimit="10" d="M73.667,239.324c0,0,4.609-4.337,5-11.167"/>
	<path fill="none" stroke="#000000" stroke-width="3" stroke-miterlimit="10" d="M132.833,211.491c0,0-14,8.5-17.833,10.833"/>
	<path fill="none" stroke="#000000" stroke-width="3" stroke-miterlimit="10" d="M162.667,223.824c0,0,15.167,7.833,21.167,1"/>
	<path fill="none" stroke="#000000" stroke-width="3" stroke-miterlimit="10" d="M179.158,284.313c0,0-1.5-9.832-15.5-10.166"/>
	<path fill="none" stroke="#000000" stroke-width="3" stroke-miterlimit="10" d="M165.158,292.646c0,0-16.168,0-24.834-7.5"/>
	<path fill="none" stroke="#000000" stroke-width="3" stroke-miterlimit="10" d="M85.01,133.746L99.25,52.25c0,0,4.5-19,20.5-18
		s16.75,17.5,17.5,19.75c0.115,0.344,0.09,1.015-0.044,1.978c-0.741,5.334-4.8,19.618-6.706,36.772
		c-2.017,18.146-1.021,34.284-0.793,41.759c0.026,0.867,0.043,1.617,0.043,2.241c0,6-1.75,40.5-1.75,40.5l-5,39.657"/>
	<path fill="none" stroke="#000000" stroke-width="3" stroke-miterlimit="10" d="M129.601,131.524
		c4.601-11.226,7.723-69.774,7.723-69.774l1.427-39c0,0,3.75-16.25,21-13.5s18.25,21.75,19,23s1.5,108.5,1.5,108.5l-10.75,70.741
		v12.333"/>
	<line fill="none" stroke="#000000" stroke-width="3" stroke-miterlimit="10" x1="173.25" y1="225.723" x2="173.25" y2="191.75"/>
	<path fill="none" stroke="#000000" stroke-width="3" stroke-miterlimit="10" d="M180.25,55.25c0,0,0.75-19.75,20.75-15
		s20.75,41,20.75,43s0,158,0,158s0.741,14.231,4.621,25.457c0.058,0.167,0.116,0.333,0.175,0.498
		c1.128,3.158,2.511,6.055,4.204,8.295c7.75,10.25,12.5,19.75,12.5,19.75s24.523,51.25,20.387,65.25s-40.387,85.75-40.387,85.75
		s-5.5,8.5-10.75,13s-16.5,22.5-16.5,22.5s-10.75,13.5-4,40.25"/>
	<path fill="none" stroke="#000000" stroke-width="3" stroke-miterlimit="10" d="M226.546,267.205c0,0-7.296-14.205-18.796-14.955
		s-16.75,0-16.75,0s-10.5,3.25-17.75,13.25s-12.5,8.5-16.75,10.25s-17.75,8.563-17.75,8.563s-11.852,10.938,1.574,23.188
		s27.992,9.25,31.084,9.25s14.842,0.324,14.842,0.324S203,314.75,206,306.5"/>
	<path fill="none" stroke="#000000" stroke-width="3" stroke-miterlimit="10" d="M192.5,341.75c0,0,1.75-12.352-4.25-24.676"/>
	<line fill="none" stroke="#000000" stroke-width="3" stroke-miterlimit="10" x1="192.737" y1="325.75" x2="198.25" y2="325.75"/>
	<line fill="none" stroke="#000000" stroke-width="3" stroke-miterlimit="10" x1="205.75" y1="333" x2="193.5" y2="333"/>
	<path fill="none" stroke="#000000" stroke-width="3" stroke-miterlimit="10" d="M192.717,335.994c0,0-2.252-4.506-12.484,0"/>
	<path fill="none" stroke="#000000" stroke-width="3" stroke-miterlimit="10" d="M-81.667,216.907"/>
</g>
</svg>
