<?xml version="1.0" encoding="utf-8"?>
<!-- Generator: Adobe Illustrator 16.0.0, SVG Export Plug-In . SVG Version: 6.00 Build 0)  -->
<!DOCTYPE svg PUBLIC "-//W3C//DTD SVG 1.1//EN" "http://www.w3.org/Graphics/SVG/1.1/DTD/svg11.dtd">
<svg version="1.1" xmlns="http://www.w3.org/2000/svg" xmlns:xlink="http://www.w3.org/1999/xlink" x="0px" y="0px" width="392px"
	 height="517.437px" viewBox="0 0 392 517.437" enable-background="new 0 0 392 517.437" xml:space="preserve">
<g id="Calque_1" display="none">
	<image display="inline" overflow="visible" width="392" height="517" xlink:href="c.jpg" >
	</image>
</g>
<g id="Calque_2">
	<path fill="none" stroke="#000000" stroke-width="3" stroke-miterlimit="10" d="M71.5,517L44,426.5c0,0-5.5-29.5,0-43
		S87.5,162,87.5,162s2.25-11,7-19.25s5.25-8.5,8-15S110,106,110,106l13.75-54c0,0,1.878-8.029,9.25-9.5
		c7.606-1.518,65.5-22.25,65.5-22.25s11.25-3,16.5,0s41.5,12.25,41.5,12.25l12.5,4.75c0,0,10.25,5.5,7.25,15.75s-11,14.25-11,14.25
		l-11,3l-4.374,1.712L214,86c0,0-8.75,4.5-13.25,12.75s-16.75,30-16.75,30l-9.5,19c0,0-5.5,16.5-11.5,19.25"/>
	<path fill="none" stroke="#000000" stroke-width="3" stroke-miterlimit="10" d="M136.5,116.75c0,0,1.605-19,22.678-30.75
		S185.5,65.25,185.5,65.25s15.25-13.75,22.5-14.5c2.643-0.273,7.511-2.208,12.631-4.556c8.927-4.093,18.619-9.444,18.619-9.444
		s17.25-7.25,19.5,8.75S252,69,252,69l-1.389,2.674"/>
	<path fill="none" stroke="#000000" stroke-width="3" stroke-miterlimit="10" d="M235,47.5c0,0-9,4-14,0"/>
	<path fill="none" stroke="#000000" stroke-width="3" stroke-miterlimit="10" d="M247.5,41.5c0,0,0-1.75-1.5-4.75"/>
	<polyline fill="none" stroke="#000000" stroke-width="3" stroke-miterlimit="10" points="172.75,75.931 162,75.931 165.75,79.25 	
		"/>
	<line fill="none" stroke="#000000" stroke-width="3" stroke-miterlimit="10" x1="245.072" y1="29.5" x2="243.25" y2="35.111"/>
	<path fill="none" stroke="#000000" stroke-width="3" stroke-miterlimit="10" d="M272.375,41.5c0,0-0.625,3.777-4,6.889"/>
	<path fill="none" stroke="#000000" stroke-width="3" stroke-miterlimit="10" d="M287.75,75.931"/>
	<path fill="none" stroke="#000000" stroke-width="3" stroke-miterlimit="10" d="M294.25,44.944"/>
	<path fill="none" stroke="#000000" stroke-width="3" stroke-miterlimit="10" d="M135.25,39.125c0,0,7.105-22.375,23.928-22.125
		s77.572-9.25,77.572-9.25s5.25-2,10.75,3.25s45.75,30.5,45.75,30.5s2.75,0.639,1,3.444s-3.75,5.806-3.75,5.806
		s-4.25,2.306-8.5-1.472"/>
	<path fill="none" stroke="#000000" stroke-width="3" stroke-miterlimit="10" d="M269.244,26.142c0,0-1.744-2.919-2.744,8.97"/>
	<path fill="none" stroke="#000000" stroke-width="3" stroke-miterlimit="10" d="M296.115,44.944c0,0,4.6,18.3-10,21.75
		c-15.74,3.72-11.75,3-13,2.75s-16.098-0.609-16.098-0.609"/>
	<path fill="none" stroke="#000000" stroke-width="3" stroke-miterlimit="10" d="M184,128.75c0,0,9,6.579,4,28.913
		s-6.333,23.667-6.333,23.667l37,44.667c0,0,22,5,47.833-8s52.167-28,52.167-28s27-11.333,42.333-8.333s21-0.333,26,17.333
		s-21.087,24.441-16.333,22c5.296-2.719-53.334,29-53.334,29l-32.68,16c0,0-14.654,9.664-23.32,19.33c0,0-11.999,7-13.666,8.333
		s-39.334,47-39.334,47s-25,27.995-34,31.329s-6.333,20-6.333,21s-1.333,67.331,24,121.331"/>
	<path fill="none" stroke="#000000" stroke-width="3" stroke-miterlimit="10" d="M116.333,384.312c0,0,17.012,8.788,38.492-11.261
		c1.432-1.337,2.884-2.802,4.353-4.406"/>
	<path fill="none" stroke="#000000" stroke-width="3" stroke-miterlimit="10" d="M164.333,377.437c0,0-3.997-5.365-11.332-2.745"/>
	<path fill="none" stroke="#000000" stroke-width="3" stroke-miterlimit="10" d="M145,342.98c0,0,13.667-9.668,18.667-26.334
		s3.964-23.666,3.964-23.666l0.089-21.667l1.947-47.333c0,0,3.667-24.667,7-29.333s3.333-35.333,0-46.667"/>
</g>
</svg>
