<?xml version="1.0" encoding="utf-8"?>
<!-- Generator: Adobe Illustrator 16.0.0, SVG Export Plug-In . SVG Version: 6.00 Build 0)  -->
<!DOCTYPE svg PUBLIC "-//W3C//DTD SVG 1.1//EN" "http://www.w3.org/Graphics/SVG/1.1/DTD/svg11.dtd">
<svg version="1.1" xmlns="http://www.w3.org/2000/svg" xmlns:xlink="http://www.w3.org/1999/xlink" x="0px" y="0px"
	 width="469.167px" height="535px" viewBox="0 0 469.167 535" enable-background="new 0 0 469.167 535" xml:space="preserve">
<g id="Calque_1" display="none">
	<image display="inline" overflow="visible" width="364" height="535" xlink:href="e.jpg"  transform="matrix(1 0 0 1 50.5 0)">
	</image>
</g>
<g id="Calque_2">
	<path fill="none" stroke="#000000" stroke-width="3" stroke-linecap="round" stroke-miterlimit="10" d="M195,468v-55.5
		c0,0-11-48-21.5-59s-35.5-88.5-41-113s-8-75.5,0-90S133,88,133,88s-1-20.5,17.5-26c0,0,18.5-6.5,20.5,0s13,46.5,13,46.5
		s4,13-7.5,17.5s-22.5-4.5-23.5-9.5c-0.533-2.668-3.009-7.158-5.989-11.237c-2.604-3.564-5.594-6.814-8.011-8.263"/>
	<path fill="none" stroke="#000000" stroke-width="3" stroke-linecap="round" stroke-miterlimit="10" d="M0,116.5"/>
	<path fill="none" stroke="#000000" stroke-width="3" stroke-linecap="round" stroke-miterlimit="10" d="M147.547,106.016
		c0,0-7.713,2.317-11.38-1.683"/>
	<path fill="none" stroke="#000000" stroke-width="3" stroke-linecap="round" stroke-miterlimit="10" d="M159.5,114
		c0,0,11.333,5.333,20.667-2.667"/>
	<path fill="none" stroke="#000000" stroke-width="3" stroke-linecap="round" stroke-miterlimit="10" d="M157.5,111.333V99
		c0,0-0.333-10.333,8.333-10.333s6.614,3.374,7.333,5.667c0.713,2.273,1.333,11.175,1.333,11.175"/>
	<path fill="none" stroke="#000000" stroke-width="3" stroke-linecap="round" stroke-miterlimit="10" d="M167.5,59.111
		c0,0-3.667-26.774,19-29.774s20.333,2,20.333,2s1.75,29.33,6,44.333c0,0,7.061,11.768,13.667,19c0,0,11,16.664-6,29
		c-11.525,8.364-24.107,10.661-35.828-10.132"/>
	<path fill="none" stroke="#000000" stroke-width="3" stroke-linecap="round" stroke-miterlimit="10" d="M195,119.337
		c0,0,15.834,7.327,27.167-8.003"/>
	<path fill="none" stroke="#000000" stroke-width="3" stroke-linecap="round" stroke-miterlimit="10" d="M195,113.538
		c0,0-5.219-21.201,2.641-26.868s14.193-0.667,15.193,0s6,10.327,6,13.33"/>
	<path fill="none" stroke="#000000" stroke-width="3" stroke-linecap="round" stroke-miterlimit="10" d="M228,98.767l14.834,24.903
		c0,0,12.999,12.068,31.666-10.132c0,0,4.666-3.201,3-17.534s-8.332-5.667-8.666-34.333s-2.001-30.333-3.334-34.667
		s-7.666-19.667-26.666-20c-19-0.333-21.5,3.417-30.25,21.375"/>
	<path fill="none" stroke="#000000" stroke-width="3" stroke-linecap="round" stroke-miterlimit="10" d="M266.667,26
		c38.501-25.333,56,16.5,56,16.5c0,0,0.459,1.891,1.126,4.958c0.088,0.406,0.18,0.832,0.274,1.276
		c2.023,9.485,5.432,27.565,4.6,38.266c-1.167,15,8.834,59.662,12.5,74.995"/>
	<path fill="none" stroke="#000000" stroke-width="3" stroke-linecap="round" stroke-miterlimit="10" d="M322.167,48.664
		c0,0-2.535,8.98,4,41.261s-15,37.02-15,37.02s-7.334,7.467-23.334-13.407s-8.416-11.144-8.416-11.144"/>
	<path fill="none" stroke="#000000" stroke-width="3" stroke-linecap="round" stroke-miterlimit="10" d="M144.833,138.33
		c0,0,15.896-2.095,22.448-8.881"/>
	<path fill="none" stroke="#000000" stroke-width="3" stroke-linecap="round" stroke-miterlimit="10" d="M266.667,98.33
		l-5.917-9.205l-3.588-2.475c0,0-20.137-4.427-13.94,18.68c3.903,14.556,3.909,13.649,3.909,13.649
		c1.693,0.556,16.869,1.032,22.702-9.442"/>
	<path fill="none" stroke="#000000" stroke-width="3" stroke-linecap="round" stroke-miterlimit="10" d="M319.5,108.333
		c0,0,0.018,21.75-17.536,11.997l-9.464-17.821c0,0-1.333-23.846,21-9.179c0,0,3.332,3.69,3.666,9.179"/>
	<path fill="none" stroke="#000000" stroke-width="3" stroke-linecap="round" stroke-miterlimit="10" d="M211.833,218
		c0,0-4.666-10.667,40-35.333s27.802-18,75.567-30.667"/>
	<path fill="none" stroke="#000000" stroke-width="3" stroke-linecap="round" stroke-miterlimit="10" d="M243.222,284.667
		c0,0-7.42-61.334,49.263-110"/>
	<path fill="none" stroke="#000000" stroke-width="3" stroke-linecap="round" stroke-miterlimit="10" d="M193.302,362.667
		c0,0,15.975,7.332,49.92-33.334"/>
	<path fill="none" stroke="#000000" stroke-width="3" stroke-linecap="round" stroke-miterlimit="10" d="M255.936,329.333
		c0,0,19.232,27.183,59.898,16.925"/>
	<path fill="none" stroke="#000000" stroke-width="3" stroke-linecap="round" stroke-miterlimit="10" d="M341.167,190.667
		c0,0,14.667-16-9.333-22.667"/>
	<path fill="none" stroke="#000000" stroke-width="3" stroke-linecap="round" stroke-miterlimit="10" d="M319.518,190.667
		c0,0-16.667-0.172-17.554-16"/>
	<path fill="none" stroke="#000000" stroke-width="3" stroke-linecap="round" stroke-miterlimit="10" d="M134.25,194.75
		c0,0,4-12,40.25-10.5s58-22.254,58-22.254S257,147.5,262,147.5"/>
	<path fill="none" stroke="#000000" stroke-width="3" stroke-miterlimit="10" d="M369.062,148.68c0,0-16.508,14.979-67.098,24.57"/>
	<path fill="none" stroke="#000000" stroke-width="3" stroke-linecap="round" stroke-miterlimit="10" d="M368.25,210.667
		c0,0-9.249,12-32.166,1.667c-0.938-0.422-1.832-0.819-2.686-1.19c-20.015-8.721-17.632-3.932-22.658-6.81
		c-5.24-3-22.975-12.774-8.776-31.083c0,0,43.286-7,66.286-24S409.5,178,412,248.5c0,0,4,20.5-26,34s-49.916,46.833-49.916,46.833
		S318.5,339.5,325,386.5s2.084,64.706,11.084,76.706"/>
	<path fill="none" stroke="#000000" stroke-width="3" stroke-linecap="round" stroke-miterlimit="10" d="M469.167,324.667"/>
	<path fill="none" stroke="#000000" stroke-width="3" stroke-linecap="round" stroke-miterlimit="10" d="M342.833,229.667"/>
	<path fill="none" stroke="#000000" stroke-width="3" stroke-linecap="round" stroke-miterlimit="10" d="M330.891,210.072
		c0,0,8.275,5.929,11.942,19.595s10.415,11.333,11.541,13"/>
	<path fill="none" stroke="#000000" stroke-width="3" stroke-linecap="round" stroke-miterlimit="10" d="M349.833,218
		c0,0-0.999,8,8.334,11.667"/>
	<path fill="none" stroke="#000000" stroke-width="3" stroke-linecap="round" stroke-miterlimit="10" d="M202.378,180.309"/>
	<path fill="none" stroke="#000000" stroke-width="3" stroke-linecap="round" stroke-miterlimit="10" d="M292.484,249.333"/>
</g>
</svg>
