<?xml version="1.0" encoding="utf-8"?>
<!-- Generator: Adobe Illustrator 16.0.0, SVG Export Plug-In . SVG Version: 6.00 Build 0)  -->
<!DOCTYPE svg PUBLIC "-//W3C//DTD SVG 1.1//EN" "http://www.w3.org/Graphics/SVG/1.1/DTD/svg11.dtd">
<svg version="1.1" xmlns="http://www.w3.org/2000/svg" xmlns:xlink="http://www.w3.org/1999/xlink" x="0px" y="0px" width="265px"
	 height="547.5px" viewBox="0 0 265 547.5" enable-background="new 0 0 265 547.5" xml:space="preserve">
<g id="Calque_1" display="none">
	<image display="inline" overflow="visible" width="265" height="546" xlink:href="f.jpg" >
	</image>
</g>
<g id="Calque_2">
	<path fill="none" stroke="#000000" stroke-width="3" stroke-linecap="round" stroke-miterlimit="10" d="M81.5,546
		c0,0-19.5-52.5-34.5-82c0,0-3.75-16.5-3.375-24.75s-6.125-25.875-6.75-27.5S7.5,305.5,7.5,305.5s-4-19.25,0-39.5s5.5-54.25,5-61.5
		s-0.75-75.75-0.75-75.75s-0.917-7.833-2-9.833s-0.141-10.562,3.833-11.5c4.063-0.959,7.583-4.5,15.417,2
		c0,0,13.639,15.75,14.611,31.333s1.389,41.583,4.556,48.083s4.833,37.991-1,50.158"/>
	
		<line fill="none" stroke="#000000" stroke-width="3" stroke-linecap="round" stroke-miterlimit="10" x1="63.167" y1="214.324" x2="52" y2="214.324"/>
	<path fill="none" stroke="#000000" stroke-width="3" stroke-linecap="round" stroke-miterlimit="10" d="M34.75,114.25
		c0,0-2.75-28.25,2-39.25c0,0,0.25-14.5,0-19.75s8.5-15.25,16-14s13.5,1,15.5,15.75S71,105.591,71,105.591s5.75,56.659,9,62.909
		s-2.5,28.5-3.5,31.25s-2.75,4-1,9.5"/>
	
		<line fill="none" stroke="#000000" stroke-width="3" stroke-linecap="round" stroke-miterlimit="10" x1="89" y1="199.75" x2="76.957" y2="198.274"/>
	<path fill="none" stroke="#000000" stroke-width="3" stroke-linecap="round" stroke-miterlimit="10" d="M70.125,81.344
		c0,0,7.209-5.01,4.375-47.51c0,0-4.167-20.333,15-18.5s17.5,23.5,18,21.333s0,53.995,0,53.995l-6.167,86.984
		c0,0-2.594,15.273,4.385,23.281c0.596,0.683,1.261,1.313,2.003,1.876c9.444,7.167,11.444,7.333,11.444,7.333"/>
	<path fill="none" stroke="#000000" stroke-width="3" stroke-linecap="round" stroke-miterlimit="10" d="M106,199.75l39.5-44.613
		c0,0,5.167-10,26,0s30.486,17.332,34.32,22.499s10.834,38.333,10.834,38.333"/>
	<path fill="none" stroke="#000000" stroke-width="3" stroke-linecap="round" stroke-miterlimit="10" d="M147.654,183.331
		c0,0,11.166,17.728,24.333,15.681c0,0,1.001,0.454,2.167,3.454s10.499,24.833,22.166,27.333s10.001-0.5,10.334-0.667"/>
	<path fill="none" stroke="#000000" stroke-width="3" stroke-linecap="round" stroke-miterlimit="10" d="M210.32,221.299h-7.333
		c0,0-12.499-12-4.333-24.333c0,0,8.105-5.633,12.833,5.667"/>
	<polyline fill="none" stroke="#000000" stroke-width="3" stroke-linecap="round" stroke-miterlimit="10" points="166.82,200.625 
		147.654,226.625 133.82,215.969 	"/>
	<path fill="none" stroke="#000000" stroke-width="3" stroke-linecap="round" stroke-miterlimit="10" d="M142.154,239.291
		c0,0,6.164-4.792,5.915-13.229"/>
	<path fill="none" stroke="#000000" stroke-width="3" stroke-linecap="round" stroke-miterlimit="10" d="M142.154,238.458v9.5
		c0,0-5.501,3.167,1.666,7.667l26.5,19.5c0,0,23.334,8.667,37.167-18.333"/>
	<path fill="none" stroke="#000000" stroke-width="3" stroke-linecap="round" stroke-miterlimit="10" d="M235.82,274.953h-10.333
		c0,0-15.769-5.833-21.801-30.833c0,0-0.7-24.592,19.134-29.796c0,0,6.668-2.204,10.834,9.129"/>
	<path fill="none" stroke="#000000" stroke-width="3" stroke-linecap="round" stroke-miterlimit="10" d="M233.654,223.454
		c0,0,2.5,10.112,11.833,9.223c0,0,11.153,1.108,15.333,22.608c0,0,2.168,7.329-16.666,33.496c0,0-9.166,9.331-13,22.831
		c0,0-14.668,18.82-24.334,29.32s-29.333,49.504-29.333,49.504s-18.833,17.022-17.333,41.855s16.832,56.204,22.666,71.704
		S198.654,546,198.654,546"/>
	<path fill="none" stroke="#000000" stroke-width="3" stroke-linecap="round" stroke-miterlimit="10" d="M209.654,336.265"/>
	<path fill="none" stroke="#000000" stroke-width="3" stroke-linecap="round" stroke-miterlimit="10" d="M229,218.25
		c0,0,2,18.5,1.5,24.75"/>
	<path fill="none" stroke="#000000" stroke-width="3" stroke-linecap="round" stroke-miterlimit="10" d="M238.206,230.625
		c0,0,8.685,11.125-2.386,17.625"/>
	<path fill="none" stroke="#000000" stroke-width="3" stroke-linecap="round" stroke-miterlimit="10" d="M172.031,275.621
		c0,0,10.969,10.629,14.719,22.629"/>
	<path fill="none" stroke="#000000" stroke-width="3" stroke-linecap="round" stroke-miterlimit="10" d="M112.5,264.5
		c0,0-16,22.5-26.25,26.75"/>
	<path fill="none" stroke="#000000" stroke-width="3" stroke-linecap="round" stroke-miterlimit="10" d="M122.75,264.5
		c0,0-30,68.453,8.5,120.227"/>
	<path fill="none" stroke="#000000" stroke-width="3" stroke-linecap="round" stroke-miterlimit="10" d="M144.5,421.5
		c0,0-16.25-5-39.5,7.75S80,442,73.5,441.75"/>
	<path fill="none" stroke="#000000" stroke-width="3" stroke-linecap="round" stroke-miterlimit="10" d="M24.167,298.25
		c0,0,41.833-5.417,49.833-24.25c0,0,19.667-20.666,27.333-21.833"/>
	<path fill="none" stroke="#000000" stroke-width="3" stroke-linecap="round" stroke-miterlimit="10" d="M138.875,257.453
		c0,0-8.375-4.953-14.25,2.172c0,0-8.875,2.375-11.5,0.75"/>
</g>
</svg>
