<?xml version="1.0" encoding="utf-8"?>
<!-- Generator: Adobe Illustrator 16.0.0, SVG Export Plug-In . SVG Version: 6.00 Build 0)  -->
<!DOCTYPE svg PUBLIC "-//W3C//DTD SVG 1.1//EN" "http://www.w3.org/Graphics/SVG/1.1/DTD/svg11.dtd">
<svg version="1.1" xmlns="http://www.w3.org/2000/svg" xmlns:xlink="http://www.w3.org/1999/xlink" x="0px" y="0px"
	 width="177.59px" height="93.503px" viewBox="0 0 177.59 93.503" enable-background="new 0 0 177.59 93.503" xml:space="preserve">
<g id="Calque_1">
	
		<image display="none" overflow="visible" width="596" height="498" xlink:href="h.jpg"  transform="matrix(0.2813 0 0 0.2813 28.25 -1.6641)">
	</image>
	<path fill="none" stroke="#000000" stroke-width="2.5" stroke-linecap="round" stroke-miterlimit="10" d="M82.917,13.398
		c0,0-1.542-0.986-2.625,0.351c-2.923,3.608,2.083,9.92,2.083,9.92c6.438,8.958,13.188,8.542,13.188,8.542l18,0.438
		c0,0,3.313-1.563,5.625-5.25"/>
	<path fill="none" stroke="#000000" stroke-width="2.5" stroke-linecap="round" stroke-miterlimit="10" d="M113.563,32.648"/>
	
		<line fill="none" stroke="#000000" stroke-width="2.5" stroke-linecap="round" stroke-miterlimit="10" x1="117.75" y1="32.961" x2="114" y2="32.648"/>
	<path fill="none" stroke="#000000" stroke-width="2.5" stroke-linecap="round" stroke-miterlimit="10" d="M125.688,39.336
		c0,0-5.125,1.5-12.125-6.688"/>
	<path fill="none" stroke="#000000" stroke-width="2.5" stroke-linecap="round" stroke-miterlimit="10" d="M129.5,27.586
		c0,0-2.531,3.166-8.813,3.875"/>
	<path fill="none" stroke="#000000" stroke-width="2.5" stroke-linecap="round" stroke-miterlimit="10" d="M117.453,32.961
		c0,0,1.203-1.344,3.234-1.5"/>
	<path fill="none" stroke="#000000" stroke-width="2.5" stroke-linecap="round" stroke-miterlimit="10" d="M83.417,20.044
		c0-0.125,0.042-3.757-1.75-6.295"/>
	<path fill="none" stroke="#000000" stroke-width="2.5" stroke-linecap="round" stroke-miterlimit="10" d="M107.25,10.273
		c0,0,1,2.688,0.875,7.063"/>
	<path fill="none" stroke="#000000" stroke-width="2.5" stroke-linecap="round" stroke-miterlimit="10" d="M71.458,12.336
		c0,0-0.792-4.75,1.375-7.792"/>
	<path fill="none" stroke="#000000" stroke-width="2.5" stroke-linecap="round" stroke-miterlimit="10" d="M58.333,9.086
		c0,0-1.084-0.958,0.708-4.542"/>
	<path fill="none" stroke="#000000" stroke-width="2.5" stroke-linecap="round" stroke-miterlimit="10" d="M63.458,23.752
		c0-0.125-0.583-2.962,1.625-6.856"/>
	<path fill="none" stroke="#000000" stroke-width="2.5" stroke-linecap="round" stroke-miterlimit="10" d="M44.25,16.544
		c0,0-0.375-1.292,0.625-3.25"/>
	<path fill="none" stroke="#000000" stroke-width="2.5" stroke-linecap="round" stroke-miterlimit="10" d="M128.063,69.336
		c0,0,2.313,6.125,8.75,0.313s6.438-5.813,6.438-5.813"/>
	<path fill="none" stroke="#000000" stroke-width="2.5" stroke-linecap="round" stroke-miterlimit="10" d="M109.938,65.398
		c0,0-0.438,2.313,4.063,1.688c0,0,2.813,1.563,6.438,2.125h7.188c0,0,3-0.625,5.313-4.25"/>
	
		<line fill="none" stroke="#000000" stroke-width="2.5" stroke-linecap="round" stroke-miterlimit="10" x1="102.5" y1="66.148" x2="109.926" y2="66.148"/>
	<path fill="none" stroke="#000000" stroke-width="2.5" stroke-linecap="round" stroke-miterlimit="10" d="M94.141,61.898
		c0,0,5.359,1,8.359,4.063"/>
	<path fill="none" stroke="#000000" stroke-width="2.5" stroke-linecap="round" stroke-miterlimit="10" d="M115.625,45.523h-9.412
		c0,0-3.15,1-6.588,1.5h-7.938c0,0-1.625-0.063-2.5,1.688c0,0-2.266,8.125,5.109,13.313"/>
	<path fill="none" stroke="#000000" stroke-width="2.5" stroke-linecap="round" stroke-miterlimit="10" d="M92.563,32.961
		c0,0-7.584-3.736-11.709,6.844"/>
	<path fill="none" stroke="#000000" stroke-width="2.5" stroke-linecap="round" stroke-miterlimit="10" d="M88.779,48.523
		c0,0-8.404-1.125-7.904-8.813"/>
	
		<line fill="none" stroke="#000000" stroke-width="2.5" stroke-linecap="round" stroke-miterlimit="10" x1="87.333" y1="33.794" x2="114.5" y2="34.294"/>
	<path fill="none" stroke="#000000" stroke-width="2.5" stroke-linecap="round" stroke-miterlimit="10" d="M115.308,35.393"/>
	<path fill="none" stroke="#000000" stroke-width="2.5" stroke-linecap="round" stroke-miterlimit="10" d="M119.297,42.305
		c0,0-3.969,1.046-4.797-0.954c0,0,0.266-1.485-1.317-5.305c0,0-0.38-1.054,2.125-0.741"/>
	<path fill="none" stroke="#000000" stroke-width="2.5" stroke-linecap="round" stroke-miterlimit="10" d="M121.188,39.444
		c0,0,1.531,3.58-5.656,6.08"/>
	<path fill="none" stroke="#000000" stroke-width="2.5" stroke-linecap="round" stroke-miterlimit="10" d="M141.709,49.211
		c0,0-12.584,3.042-22.084-5.083"/>
	<path fill="none" stroke="#000000" stroke-width="2.5" stroke-linecap="round" stroke-miterlimit="10" d="M145.792,48.877
		c0,0,1.751-0.417,3.292,1.5"/>
	<path fill="none" stroke="#000000" stroke-width="2.5" stroke-linecap="round" stroke-miterlimit="10" d="M95.25,58.023
		c0,0,8.426-0.813,10.963-2.063S113,54.648,114,54.586s2.5-0.875,2.5-0.875c9.5-9.375,1.25-8.5,1.25-8.5"/>
	<path fill="none" stroke="#000000" stroke-width="2.5" stroke-linecap="round" stroke-miterlimit="10" d="M97.438,61.086
		c0,0,2.438-0.5,2.813-3.375"/>
	<path fill="none" stroke="#000000" stroke-width="2.5" stroke-linecap="round" stroke-miterlimit="10" d="M104.188,63.148
		c0,0,2.113-3.625,2.025-6.75"/>
	<path fill="none" stroke="#000000" stroke-width="2.5" stroke-linecap="round" stroke-miterlimit="10" d="M118.333,50.868h-3.083
		c0,0-1.084,1.218-1.25-4.615"/>
	<path fill="none" stroke="#000000" stroke-width="2.5" stroke-linecap="round" stroke-miterlimit="10" d="M130.375,72.153
		c0,0,9.813,14.183,9.625,16.433"/>
	<path fill="none" stroke="#000000" stroke-width="2.5" stroke-miterlimit="10" d="M0,44.127"/>
	<path fill="none" stroke="#000000" stroke-width="2.5" stroke-miterlimit="10" d="M12.75,44.127"/>
	<path fill="none" stroke="#000000" stroke-width="2.5" stroke-miterlimit="10" d="M-28.75,61.086"/>
</g>
<g id="Calque_2">
	<path fill="#FFFFFF" stroke="#000000" stroke-width="2.5" stroke-linecap="round" stroke-miterlimit="10" d="M142.257,93.503"/>
	<path fill="none" stroke="#000000" stroke-width="2.5" stroke-linecap="round" stroke-miterlimit="10" d="M177.09,76.003
		c0,0-14.167-41.833-36.5-53.167s-31-15.833-31-15.833s-6.382-2.056-11.799-2.306S85.75,2.946,85.75,2.946l-11.511-2.1
		c0,0-2.554-0.505-4.721-0.296S49.097,0.5,49.097,0.5s-11.048,0.388-6.34,8.013"/>
	<path fill="none" stroke="#000000" stroke-width="2.5" stroke-linecap="round" stroke-miterlimit="10" d="M79.132,15.888
		c0,0-23.208-5.292-36.292-7.125"/>
	<path fill="none" stroke="#000000" stroke-width="2.5" stroke-linecap="round" stroke-miterlimit="10" d="M42.502,8.763
		c0,0-8.875-2.502-11.167,0.498s-2.167,7.346,3.125,8.929"/>
	<path fill="none" stroke="#000000" stroke-width="2.5" stroke-linecap="round" stroke-miterlimit="10" d="M85.781,32.648
		L47.336,21.064c-6.458-2.375-12.992-2.875-12.992-2.875"/>
	<path fill="none" stroke="#000000" stroke-width="2.5" stroke-linecap="round" stroke-miterlimit="10" d="M91.125,18.189
		c24.125,0.479,31.61-4.44,31.61-4.44"/>
	<path fill="none" stroke="#000000" stroke-width="2.5" stroke-linecap="round" stroke-miterlimit="10" d="M82.708,13.294"/>
	<path fill="none" stroke="#000000" stroke-width="2.5" stroke-linecap="round" stroke-miterlimit="10" d="M85.781,21.086
		c0,0,8.434,2.426,4.594-2.896c-1.147-1.59-6.696-3.998-7.458-4.895"/>
	<path fill="none" stroke="#000000" stroke-width="2.5" stroke-linecap="round" stroke-miterlimit="10" d="M94.458,8.127
		c0,0-3.667,4.608-5.833,8.417"/>
</g>
</svg>
