<?xml version="1.0" encoding="utf-8"?>
<!-- Generator: Adobe Illustrator 16.0.0, SVG Export Plug-In . SVG Version: 6.00 Build 0)  -->
<!DOCTYPE svg PUBLIC "-//W3C//DTD SVG 1.1//EN" "http://www.w3.org/Graphics/SVG/1.1/DTD/svg11.dtd">
<svg version="1.1" id="Calque_1" xmlns="http://www.w3.org/2000/svg" xmlns:xlink="http://www.w3.org/1999/xlink" x="0px" y="0px"
	 width="242.901px" height="513.521px" viewBox="0 0 242.901 513.521" enable-background="new 0 0 242.901 513.521"
	 xml:space="preserve">
<image display="none" overflow="visible" width="254" height="521" xlink:href="m.jpg"  transform="matrix(1 0 0 1 -6.0986 -8.979)">
</image>
<path fill="none" stroke="#000000" stroke-width="3" stroke-linecap="round" stroke-miterlimit="10" d="M241.401,512.021
	c0,0-56-120.5-45.5-185c0,0,24.001-72.667,24.667-102.333s-3.333-53.999-1-57.999"/>
<path fill="none" stroke="#000000" stroke-width="3" stroke-linecap="round" stroke-miterlimit="10" d="M210.903,162.693
	c0,0,21,10,26-9.333l-2.333-43.333c0,0-2.999-12-4.333-14.667c0,0-22.668-57-38.334-65.333c0,0-13-3-22-2.333"/>
<path fill="none" stroke="#000000" stroke-width="3" stroke-linecap="round" stroke-miterlimit="10" d="M117.237,18.36
	c0,0,17.667-20.333,46,5.333s38.667,29.667,51,55.667c0,0,2.852,5.82,3.759,17.077s0.564,21.673,6.907,43.923
	s-25.961,22.667-30.313,20.667"/>
<path fill="none" stroke="#000000" stroke-width="3" stroke-linecap="round" stroke-miterlimit="10" d="M197.237,142.027
	c0,0,10.666,6.333,23.333,0"/>
<path fill="none" stroke="#000000" stroke-width="3" stroke-linecap="round" stroke-miterlimit="10" d="M222.237,158.027
	c0,0,11.666,0.667,11.666-3.667"/>
<path fill="none" stroke="#000000" stroke-width="3" stroke-linecap="round" stroke-miterlimit="10" d="M232.237,144.841
	c0,0,1.334-19.814-10-21.481"/>
<path fill="none" stroke="#000000" stroke-width="3" stroke-linecap="round" stroke-miterlimit="10" d="M197.237,121.027
	c0,0,2.999-19.026,20.759-4"/>
<path fill="none" stroke="#000000" stroke-width="3" stroke-linecap="round" stroke-miterlimit="10" d="M189.237,179.027
	c0,0-8.001,4.334-3.334,24.667"/>
<path fill="none" stroke="#000000" stroke-width="3" stroke-linecap="round" stroke-miterlimit="10" d="M76.237,78.027
	c0,0-9-13.667-14.667-18.667"/>
<path fill="none" stroke="#000000" stroke-width="3" stroke-linecap="round" stroke-miterlimit="10" d="M81.237,82.027
	c0,0,24.333,6,22-7.333"/>
<path fill="none" stroke="#000000" stroke-width="3" stroke-linecap="round" stroke-miterlimit="10" d="M103.395,161.79
	c0,0-24.825-1.355-38.491-3.726"/>
<line fill="none" stroke="#000000" stroke-width="3" stroke-linecap="round" stroke-miterlimit="10" x1="100.903" y1="181.36" x2="100.903" y2="200.694"/>
<path fill="none" stroke="#000000" stroke-width="3" stroke-linecap="round" stroke-miterlimit="10" d="M36.903,114.361
	c0,0,23.333,5.667,59-6.333s42.333-2,59,10s43.289,18.368,35.812,53.351c0,0,0.228,22.314,3.875,32.315
	c0.193,0.531,0.218,0.971,0.112,1.334c-0.092,0.317-7.862,1.332-7.862,1.332"/>
<path fill="none" stroke="#000000" stroke-width="3" stroke-linecap="round" stroke-miterlimit="10" d="M194.702,205.028
	c-6.866,21.341-35.134,1.332-35.134,1.332s-6.917-0.004-8.417-39.672c0,0-38.079-17.082-44.915-8.625c0,0-0.947,2.929-3.358,6.879
	c0,0,0,0.001,0,0.001c-4.141,6.787-12.597,16.589-27.976,19.749"/>
<path fill="none" stroke="#000000" stroke-width="3" stroke-linecap="round" stroke-miterlimit="10" d="M147.401,254.771
	c0,0-11.079-35-30.165-61.5s-13.075-25.066-14.358-28.326"/>
<path fill="none" stroke="#000000" stroke-width="3" stroke-linecap="round" stroke-miterlimit="10" d="M74.903,112.271
	c0,0-29.002-30.25-19.752-48.5c0,0,4.754-12.821,19.752-4.411s32.498,14.922,36.248,18.667s12.5,10.425,18,24.584"/>
<path fill="none" stroke="#000000" stroke-width="3" stroke-linecap="round" stroke-miterlimit="10" d="M60.151,48.021
	c0,0,2.75,4.96,6.25,8.48"/>
<path fill="none" stroke="#000000" stroke-width="3" stroke-linecap="round" stroke-miterlimit="10" d="M177.847,132.667
	c0,0,15.555-6.396-3.695-44.396c0,0-6.5-30-26.75-44.5s-28.25-22.75-28.25-22.75S86.146,3.771,84.149,2.771
	s-22.998-7.85-34.748,24.825l-26.5,70.175c0,0-3.5,11.25-10.75,16.25s-13.25,19.5-9.5,37.25s1.25,23,1.25,23s10.75,56.25,14,65.25
	s9.25,44.5,17.75,65.75s18,77.25,19.25,83.25s1.25,10.5,2,16.5s14,33.5,18,39.25s11.75,67.75,11.75,67.75"/>
<path fill="none" stroke="#000000" stroke-width="3" stroke-linecap="round" stroke-miterlimit="10" d="M96.068,350.355
	c0,0,38.834,4.506,60-53.333"/>
<path fill="none" stroke="#000000" stroke-width="3" stroke-linecap="round" stroke-miterlimit="10" d="M181.734,121.027
	c0,0-6,1.495-8.5-1.172"/>
<path fill="none" stroke="#000000" stroke-width="3" stroke-linecap="round" stroke-miterlimit="10" d="M171.481,117.854
	c0,0-15.413-19.368-3.08-31.601"/>
<line fill="none" stroke="#000000" stroke-width="3" stroke-linecap="round" stroke-miterlimit="10" x1="169.903" y1="86.254" x2="176.734" y2="96.437"/>
</svg>
